<?xml version="1.0" standalone="no"?>
<!DOCTYPE svg PUBLIC "-//W3C//DTD SVG 20010904//EN"
 "http://www.w3.org/TR/2001/REC-SVG-20010904/DTD/svg10.dtd">
<svg version="1.0" xmlns="http://www.w3.org/2000/svg"
 width="250.000000pt" height="250.000000pt" viewBox="0 0 250.000000 250.000000"
 preserveAspectRatio="xMidYMid meet">
<metadata>
Created by potrace 1.11, written by Peter Selinger 2001-2013
</metadata>
<g transform="translate(0.000000,250.000000) scale(0.100000,-0.100000)"
fill="#000000" stroke="none">
<path d="M0 1250 l0 -1250 1250 0 1250 0 0 1250 0 1250 -1250 0 -1250 0 0
-1250z m1451 846 c168 -42 300 -116 415 -230 184 -185 282 -458 253 -703 -56
-458 -419 -783 -874 -783 -168 0 -328 48 -472 142 -362 237 -494 705 -309
1102 169 364 600 570 987 472z"/>
<path d="M1155 2003 c-16 -2 -47 -9 -68 -14 l-37 -10 2 -726 3 -727 35 -7 c19
-4 50 -9 68 -13 l32 -5 0 344 0 345 130 0 130 0 -2 398 -3 397 -65 11 c-65 12
-168 15 -225 7z m134 -139 l31 -6 0 -265 0 -264 -62 3 -63 3 -3 259 c-2 201 1
261 10 268 16 9 45 10 87 2z"/>
<path d="M885 1912 c-84 -44 -233 -188 -284 -274 -18 -32 -47 -97 -64 -145
-30 -84 -32 -95 -32 -238 0 -143 2 -154 32 -238 35 -99 81 -180 135 -241 l38
-41 -3 125 c-3 103 -8 137 -29 195 -14 39 -28 85 -32 103 l-5 32 89 0 90 0 0
-279 0 -279 70 -36 70 -37 0 695 c0 383 -1 696 -2 696 -2 0 -34 -17 -73 -38z
m-69 -569 c-4 -9 -29 -13 -86 -13 -78 0 -80 1 -80 24 0 70 75 233 138 299 l27
28 3 -162 c1 -90 0 -169 -2 -176z"/>
<path d="M1540 1255 c0 -382 3 -695 6 -695 4 0 33 15 65 32 l59 32 2 281 3
280 79 3 c44 2 85 1 92 -2 15 -6 -3 -94 -36 -170 -18 -42 -20 -65 -18 -170 l3
-121 49 65 c110 148 159 291 158 465 -1 178 -49 319 -158 465 l-49 65 -3 -50
c-7 -108 4 -209 31 -283 15 -41 27 -85 27 -98 0 -25 -1 -25 -87 -22 l-88 3 -3
275 -2 275 -40 23 c-22 12 -51 27 -65 32 l-25 10 0 -695z"/>
</g>
</svg>
