<?xml version="1.0" encoding="utf-8"?>
<!-- Generator: Adobe Illustrator 25.0.1, SVG Export Plug-In . SVG Version: 6.00 Build 0)  -->
<svg version="1.1" id="Layer_1" xmlns="http://www.w3.org/2000/svg" xmlns:xlink="http://www.w3.org/1999/xlink" x="0px" y="0px"
	 viewBox="0 0 163.5 285.9" style="enable-background:new 0 0 163.5 285.9;" xml:space="preserve">
<path d="M65.5,209.4c0-69.8,0-139.5,0-209.4C76.4,0,87.1,0,98,0c0,69.8,0,139.6,0,209.4c0.1,0.1,0.3,0.2,0.4,0.2
	c21.6-26.2,43.1-52.4,64.9-78.9c0.1,0.7,0.2,1.2,0.2,1.6c0,17.7,0,35.4,0,53.1c0,0.9-0.6,2-1.2,2.7c-20.1,24.5-40.3,49-60.4,73.4
	c-6.3,7.7-12.7,15.4-19,23.1c-0.3,0.4-0.7,0.8-1.1,1.3c-3.5-4.2-6.9-8.3-10.3-12.5C48.1,245,24.7,216.6,1.3,188.2
	C0.4,187.1,0,186,0,184.5c0-17.2,0-34.4,0-51.6c0-0.6,0-1.3,0-1.9c0.1,0,0.2-0.1,0.4-0.1c21.6,26.2,43.1,52.4,64.7,78.6
	C65.2,209.5,65.3,209.4,65.5,209.4z"/>
</svg>
