<?xml version="1.0" encoding="utf-8"?>
<!-- Generator: Adobe Illustrator 24.1.0, SVG Export Plug-In . SVG Version: 6.00 Build 0)  -->
<svg version="1.1" id="Layer_1" xmlns="http://www.w3.org/2000/svg" xmlns:xlink="http://www.w3.org/1999/xlink" x="0px" y="0px"
	 viewBox="0 0 286 164" style="enable-background:new 0 0 286 164;" xml:space="preserve">
     <style>
        .svg-white {
            fill: #ffffff; 
        }
    </style>
<path class="svg-white" d="M209.4,98C139.6,98,69.9,98,0,98c0-10.9,0-21.6,0-32.5c69.8,0,139.6,0,209.4,0c0.1-0.1,0.2-0.3,0.2-0.4
	C183.4,43.5,157.2,22,130.7,0.2c0.7-0.1,1.2-0.2,1.6-0.2c17.7,0,35.4,0,53.1,0c0.9,0,2,0.6,2.7,1.2c24.5,20.1,49,40.3,73.4,60.4
	c7.7,6.3,15.4,12.7,23.1,19c0.4,0.3,0.8,0.7,1.3,1.1c-4.2,3.5-8.3,6.9-12.5,10.3c-28.4,23.4-56.8,46.8-85.2,70.2
	c-1.1,0.9-2.2,1.3-3.7,1.3c-17.2,0-34.4,0-51.6,0c-0.6,0-1.3,0-1.9,0c0-0.1-0.1-0.2-0.1-0.4c26.2-21.6,52.4-43.1,78.6-64.7
	C209.5,98.3,209.4,98.2,209.4,98z"/>
</svg>