<?xml version="1.0" encoding="utf-8"?>
<!-- Generator: Adobe Illustrator 25.0.0, SVG Export Plug-In . SVG Version: 6.00 Build 0)  -->
<svg version="1.1" id="Layer_1" xmlns="http://www.w3.org/2000/svg" xmlns:xlink="http://www.w3.org/1999/xlink" x="0px" y="0px"
	 viewBox="0 0 286 164" style="enable-background:new 0 0 286 164;" xml:space="preserve">
    <style>
        .svg-white {
            fill: #ffffff; 
        }
    </style>
<path class="svg-white" d="M76.5,65.5c69.8,0,139.5,0,209.4,0c0,10.9,0,21.6,0,32.5c-69.8,0-139.6,0-209.4,0c-0.1,0.1-0.2,0.3-0.2,0.4
	c26.2,21.6,52.4,43.1,78.9,64.9c-0.7,0.1-1.2,0.2-1.6,0.2c-17.7,0-35.4,0-53.1,0c-0.9,0-2-0.6-2.7-1.2c-24.5-20.1-49-40.3-73.4-60.4
	C16.7,95.6,9,89.2,1.3,82.9c-0.4-0.3-0.8-0.7-1.3-1.1c4.2-3.5,8.3-6.9,12.5-10.3C40.9,48.1,69.3,24.7,97.7,1.3
	c1.1-0.9,2.2-1.3,3.7-1.3c17.2,0,34.4,0,51.6,0c0.6,0,1.3,0,1.9,0c0,0.1,0.1,0.2,0.1,0.4C128.8,22,102.6,43.5,76.4,65.1
	C76.4,65.2,76.5,65.3,76.5,65.5z"/>
</svg>
