<svg xmlns="http://www.w3.org/2000/svg" viewBox="0 0 454 453.4"><style type="text/css">  
	.st0{fill:#FFFFFF;}
</style><path class="st0" d="M227.2 3.7C104.1 3.6 4 103.2 3.8 226.3c-0.3 123 99.2 223 222.5 223.3 123.3 0.4 223.7-99.2 224-222C450.5 104 350.8 3.9 227.2 3.7zM153.3 403.4c-12.8-5.3-24.7-11.8-35.7-19.5 -0.9-0.6-1.4-2.3-1.4-3.5 -0.1-15.7-0.1-31.3-0.1-46.9 0-29.2 0.1-58.3 0.2-87.5 0-2.9-0.6-3.9-3.7-3.8 -12.6 0.2-25.1 0.1-37.7 0.1 -1.1 0-2.1 0-3.8 0 0.6 4 1 7.8 1.7 11.5 2.7 14.2 7.2 27.7 13.6 40.6 0.6 1.2 1 2.6 1 3.9 0 19.3 0 38.5 0 57.8 0 0.4-0.1 0.8-0.2 1.9 -19-20.2-32.9-42.8-42-68.4 -9.1-25.7-12.6-52.2-10.4-79.3 6.7-82.3 61.9-140 118.5-162.7C153.3 166.1 153.3 284.6 153.3 403.4zM279.3 239.7c0 0.7-0.1 1.5-0.2 2.6 -22.5 0-44.9 0-67.7 0.1 0 58.6 0 116.7 0 175.5 -7.1-1.1-13.9-2-20.7-3.2 -4.5-0.8-8.9-2.1-13.3-3 -1.7-0.4-2.5-1.1-2.4-3 0.1-2.2 0-4.5 0-6.8 0-119.3 0-238.6-0.1-357.9 0-3.2 1-4.3 4-5.1 32.7-8.3 65.3-8.1 97.9 0.4 1.9 0.5 2.5 1.3 2.5 3.2C279.3 108.2 279.3 174 279.3 239.7zM363.9 360.8c0-1-0.1-1.9-0.1-2.7 -0.1-18.4-0.1-36.8 0-55.2 0-1.8 0.5-3.7 1.3-5.3 8.8-17 14.5-35 16.8-54 0-0.2-0.1-0.5-0.1-1.1 -15.4 0-30.9 0-46.7 0 0 1.3 0 2.6 0 3.8 0 45.2 0 90.3 0.1 135.5 0.1 2.5-0.7 3.9-2.8 5.2 -10 6.3-20.3 11.8-31.5 16.4 0-118.8 0-237.2 0-356.1 2.7 1.1 5.3 2.1 7.8 3.4 7.9 4.3 15.7 8.7 23.6 13 2.2 1.2 2.9 2.7 2.9 5.2 -0.1 44-0.1 88-0.1 132 0 1.2 0 2.4 0 3.8 15.5 0 30.7 0 46.7 0 -1.6-7-2.5-14.2-4.8-20.8 -3.5-10.3-8-20.3-12-30.5 -0.5-1.4-1.2-2.8-1.2-4.2 0-19.1 0-38.3 0-57.5 0-0.5 0.1-1 0.2-1.9C441.4 165.8 436.3 292 363.9 360.8z"/><path class="st0" d="M75.3 205c12.6 0 25.3 0 37.9 0.1 2.6 0 3.2-0.9 3.2-3.4 -0.1-27.6-0.1-55.3-0.1-82.9 0-1-0.1-1.9-0.2-3.6 -24.8 25.4-39.5 54.9-44.3 89.8C73.4 205 74.3 205 75.3 205z"/><path class="st0" d="M211.7 70c0 45 0 89.8 0 134.8 11.2 0 22.3 0 33.6 0 0-44.8 0-89.4 0-134.3C234.1 69 223 68.8 211.7 70z"/></svg>