<?xml version="1.0" encoding="UTF-8"?>
<svg width="666px" height="303px" viewBox="0 0 666 303" version="1.1" xmlns="http://www.w3.org/2000/svg" xmlns:xlink="http://www.w3.org/1999/xlink">
    <!-- Generator: Sketch 43.1 (39012) - http://www.bohemiancoding.com/sketch -->
    <title>mightily_salmon</title>
    <desc>Created with Sketch.</desc>
    <defs>
        <polygon id="path-1" points="0 303 0 0.556 665.308 0.556 665.308 303"></polygon>
    </defs>
    <g id="Page-1" stroke="none" stroke-width="1" fill="none" fill-rule="evenodd">
        <g id="Mightily_Logotype">
            <mask id="mask-2" fill="white">
                <use xlink:href="#path-1"></use>
            </mask>
            <g id="Clip-2"></g>
            <path d="M246.14,95.689 C253.968,99.79 259.386,94.54 263.487,86.712 C267.588,78.883 268.821,71.436 260.99,67.34 C256.479,64.981 251.935,63.871 251.935,63.871 C251.935,63.871 246.793,69.942 243.643,76.317 C239.728,84.24 238.311,91.588 246.14,95.689" id="Fill-1" fill="#F7848F" mask="url(#mask-2)"></path>
            <path d="M230.781,66.906 C230.781,46.837 213.576,39.957 213.576,39.957 C205.185,57.578 125.903,178.308 125.903,178.308 C125.903,169.583 162.71,90.899 162.71,71.582 C162.71,50.667 145.522,47.535 145.522,47.535 C131.04,71.364 67.721,170.297 67.721,170.297 C67.721,164.781 97.862,109.117 97.862,88.388 C97.862,74.255 80.918,61.252 74.982,61.252 C62.86,61.252 31.685,114.242 12.082,114.242 C3.037,114.242 0.775,107.74 0.775,107.74 C0.775,107.74 -6.009,136.755 20.554,136.755 C43.554,136.755 76.804,78.157 80.936,78.157 C84.615,78.157 29.657,179.417 29.657,211.486 C29.657,222.62 39.381,238.719 56.495,238.719 C56.495,238.719 55.081,237.819 55.081,230.375 C55.081,202.713 120.142,104.784 120.142,104.784 C120.142,104.784 91.699,179.758 91.699,202.15 C91.699,217.032 105.194,230.606 120.282,230.606 C120.282,230.606 119.346,228.084 119.346,224.985 C119.346,196 189.723,99.087 189.723,99.087 C189.723,99.087 145.062,188.083 145.062,215.934 C145.062,234.307 157.741,245.845 169.758,245.845 C172.446,245.845 176.231,243.961 176.231,243.961 C176.231,243.961 172.415,240.103 172.415,232.186 C172.415,204.034 230.781,89.416 230.781,66.906" id="Fill-3" fill="#F7848F" mask="url(#mask-2)"></path>
            <path d="M587.427,19.908 C594.336,19.908 565.062,67.078 545.05,98.119 C559.91,62.209 580.626,19.908 587.427,19.908 Z M650.937,140.37 C642.933,140.37 623.977,149.128 605.681,182.132 C627.282,120.411 653.108,83.064 653.108,78.724 C653.108,70.224 642.415,63.916 637.679,63.916 C637.615,64.029 633.4,71.291 627.252,82.848 C622.857,90.511 589.437,148.5 584.457,148.5 C580.252,148.5 605.503,89.62 605.503,82.524 C605.503,74.556 594.168,67.212 589.979,67.212 C589.835,67.212 537.788,147.606 529.66,147.606 C527.525,147.606 529.93,138.212 534.798,124.531 C537.019,121.644 596.214,44.424 596.214,18.648 C596.214,13.481 583.354,0.556 577.983,0.556 C563.537,0.556 537.942,42.544 522.181,85.374 C518.705,91.278 486.485,145.919 484.908,145.919 C482.242,145.919 504.664,92.041 504.664,85.067 C504.664,75.319 490.848,69.531 490.269,69.289 C490.269,69.289 431.414,154.352 431.8,152.705 C436.604,132.233 458.659,87.568 472.268,60.764 C484.641,60.743 497.742,60.993 510.367,60.993 C516.215,60.993 520.339,57.089 523.698,50.677 C527.799,42.849 529.032,35.4 521.201,31.305 C516.69,28.946 512.146,27.836 512.146,27.836 C512.146,27.836 500.846,36.358 500.846,48.284 C494.53,48.284 487.076,47.871 479.102,47.381 C481.654,42.398 483.195,39.372 483.195,39.172 C483.195,36.168 472.319,19.367 468.507,19.367 C466.228,19.367 459.974,30.23 452.34,45.951 C423.183,45.017 395.698,47.504 395.698,67.501 C395.698,81.126 412.742,80.012 412.742,80.012 C412.742,80.012 411.742,78.979 411.742,76.428 C411.742,66.829 425.457,63.012 445.022,61.572 C441.297,69.774 437.454,78.595 433.729,87.483 C419.182,110.768 386.972,159.477 385.373,159.477 C383.883,159.477 408.857,106.505 408.857,101.618 C408.857,96.88 399.349,83.361 397.573,83.361 C382.222,83.361 343.919,145.607 343.919,145.607 C370.222,84.612 392.87,51.376 392.87,46.376 C392.87,41.042 383.96,27.082 379.305,27.082 C369.379,27.082 319.916,147.557 319.916,167.297 C319.916,171.89 328.953,184.694 331.675,184.694 C331.675,184.694 362.597,129.82 385.425,102.82 C385.461,102.777 365.074,150.538 365.074,162.843 C365.074,167.538 374.169,178.153 380.658,178.153 C385.303,178.153 403.432,149.916 418.846,125.325 C413.12,141.134 409.286,153.94 409.286,159.263 C409.286,163.559 419.694,171.829 424.27,171.829 C431.65,171.829 474.731,105.598 474.731,105.598 C474.731,105.598 459.639,140.162 459.639,147.662 C459.639,154.287 472.986,164.599 478.486,164.599 C485.246,164.599 500.311,139.831 512.326,117.9 C509.913,128.408 508.522,138.263 508.522,146.745 C508.522,153.162 523.128,164.213 527.461,164.213 C539.705,164.213 572.808,109.204 572.808,109.204 C572.808,109.204 561.273,137.718 561.273,145.592 C561.273,151.092 568.119,163.958 579.119,163.958 C582.87,163.958 590.983,153.381 599.826,139.853 C590.296,162.312 582.004,186.044 579.347,205.392 C577.832,216.432 593.792,220.789 593.792,220.789 C615.937,181.223 645.68,157.722 665.308,157.722 C665.308,157.722 665.27,140.37 650.937,140.37 L650.937,140.37 Z" id="Fill-4" fill="#F7848F" mask="url(#mask-2)"></path>
            <path d="M255.867,287.261 C246.719,287.261 276.449,253.858 341.668,229.985 C330.48,253.845 288.271,287.261 255.867,287.261 Z M474.262,182.495 C429.137,182.495 387.951,189.942 353.242,201.274 C347.059,196.142 337.492,193.05 323.924,193.05 C310.018,193.05 294.722,196.934 281.534,201.505 L289.871,189.574 C306.311,177.573 321.278,145.552 321.278,121.254 C321.278,112.026 317.425,106.317 312.69,102.773 C314.872,79.587 339.519,79.313 339.519,79.313 C339.519,79.313 334.992,66.095 321.491,66.095 C304.241,66.095 295.305,78.56 295.305,96.992 L295.551,97.122 C296.987,97.925 304.303,102.635 304.303,115.262 C304.303,132.173 280.207,181.702 273.241,181.702 C265.047,181.702 279.472,130.525 299.241,112.382 C299.241,112.382 290.908,101.872 284.158,101.872 C276.532,101.872 264.103,115.978 256.134,136.221 C243.741,156.491 225.776,188.789 223.996,188.789 C220.33,188.789 247.446,133.219 247.446,126.244 C247.446,116.496 230.391,110.708 229.812,110.466 C229.812,110.466 200.349,171.849 200.349,190.265 C200.349,196.89 213.694,207.202 219.194,207.202 C223.152,207.202 237.198,184.059 249.31,163.002 C248.841,166.87 248.575,170.812 248.575,174.802 C248.575,182.742 260.328,190.109 269.821,193.046 L248.144,215.971 C248.144,215.971 252.899,230.1 261.664,230.1 C272.356,230.1 293.91,206.437 324.63,206.437 C328.851,206.437 332.315,206.907 335.114,207.764 C278.372,229.939 243.066,262.14 243.066,285.08 C243.066,293.208 251.872,303.001 264.059,303.001 C316.419,303.001 360.678,255.755 362.132,223.203 C395.128,213.354 435.451,206.38 482.799,206.38 C521.201,206.38 517.271,218.982 517.271,219.872 C517.271,219.872 528.185,217.336 528.185,206.463 C528.185,194.602 513.359,182.495 474.262,182.495 L474.262,182.495 Z" id="Fill-5" fill="#F7848F" mask="url(#mask-2)"></path>
        </g>
    </g>
</svg>